%TF.GenerationSoftware,KiCad,Pcbnew,9.0.2*%
%TF.CreationDate,2026-05-21T13:44:50-06:00*%
%TF.ProjectId,Walle_E_ESP32_S3_Node_v2,57616c6c-655f-4455-9f45-535033325f53,rev?*%
%TF.SameCoordinates,Original*%
%TF.FileFunction,Copper,L1,Top*%
%TF.FilePolarity,Positive*%
%FSLAX46Y46*%
G04 Gerber Fmt 4.6, Leading zero omitted, Abs format (unit mm)*
G04 Created by KiCad (PCBNEW 9.0.2) date 2026-05-21 13:44:50*
%MOMM*%
%LPD*%
G01*
G04 APERTURE LIST*
G04 Aperture macros list*
%AMRoundRect*
0 Rectangle with rounded corners*
0 $1 Rounding radius*
0 $2 $3 $4 $5 $6 $7 $8 $9 X,Y pos of 4 corners*
0 Add a 4 corners polygon primitive as box body*
4,1,4,$2,$3,$4,$5,$6,$7,$8,$9,$2,$3,0*
0 Add four circle primitives for the rounded corners*
1,1,$1+$1,$2,$3*
1,1,$1+$1,$4,$5*
1,1,$1+$1,$6,$7*
1,1,$1+$1,$8,$9*
0 Add four rect primitives between the rounded corners*
20,1,$1+$1,$2,$3,$4,$5,0*
20,1,$1+$1,$4,$5,$6,$7,0*
20,1,$1+$1,$6,$7,$8,$9,0*
20,1,$1+$1,$8,$9,$2,$3,0*%
G04 Aperture macros list end*
%TA.AperFunction,ComponentPad*%
%ADD10R,1.650000X1.650000*%
%TD*%
%TA.AperFunction,ComponentPad*%
%ADD11C,1.650000*%
%TD*%
%TA.AperFunction,SMDPad,CuDef*%
%ADD12R,0.609600X2.209800*%
%TD*%
%TA.AperFunction,ComponentPad*%
%ADD13R,1.530000X1.530000*%
%TD*%
%TA.AperFunction,ComponentPad*%
%ADD14C,1.530000*%
%TD*%
%TA.AperFunction,ComponentPad*%
%ADD15R,1.800000X1.800000*%
%TD*%
%TA.AperFunction,ComponentPad*%
%ADD16C,1.800000*%
%TD*%
%TA.AperFunction,ComponentPad*%
%ADD17C,1.600000*%
%TD*%
%TA.AperFunction,ComponentPad*%
%ADD18C,2.400000*%
%TD*%
%TA.AperFunction,ComponentPad*%
%ADD19RoundRect,0.250000X-1.050000X-1.050000X1.050000X-1.050000X1.050000X1.050000X-1.050000X1.050000X0*%
%TD*%
%TA.AperFunction,ComponentPad*%
%ADD20C,2.600000*%
%TD*%
%TA.AperFunction,ComponentPad*%
%ADD21R,1.700000X1.700000*%
%TD*%
%TA.AperFunction,ComponentPad*%
%ADD22C,1.700000*%
%TD*%
%TA.AperFunction,SMDPad,CuDef*%
%ADD23R,2.800000X1.100000*%
%TD*%
%TA.AperFunction,SMDPad,CuDef*%
%ADD24R,2.600000X1.100000*%
%TD*%
%TA.AperFunction,ComponentPad*%
%ADD25RoundRect,0.249999X0.850001X-0.850001X0.850001X0.850001X-0.850001X0.850001X-0.850001X-0.850001X0*%
%TD*%
%TA.AperFunction,ComponentPad*%
%ADD26C,2.200000*%
%TD*%
%TA.AperFunction,ComponentPad*%
%ADD27RoundRect,0.249999X-0.850001X0.850001X-0.850001X-0.850001X0.850001X-0.850001X0.850001X0.850001X0*%
%TD*%
%TA.AperFunction,ComponentPad*%
%ADD28R,1.110000X1.110000*%
%TD*%
%TA.AperFunction,ComponentPad*%
%ADD29C,1.110000*%
%TD*%
%TA.AperFunction,ViaPad*%
%ADD30C,0.600000*%
%TD*%
%TA.AperFunction,Conductor*%
%ADD31C,0.200000*%
%TD*%
%TA.AperFunction,Conductor*%
%ADD32C,1.500000*%
%TD*%
%TA.AperFunction,Conductor*%
%ADD33C,0.250000*%
%TD*%
%TA.AperFunction,Conductor*%
%ADD34C,1.000000*%
%TD*%
%TA.AperFunction,Conductor*%
%ADD35C,0.300000*%
%TD*%
%TA.AperFunction,Conductor*%
%ADD36C,0.500000*%
%TD*%
G04 APERTURE END LIST*
D10*
%TO.P,PS1,1,VAC_IN(N)*%
%TO.N,/AC_NEUTRAL*%
X129540000Y-78740000D03*
D11*
%TO.P,PS1,5,VAC_IN(L)*%
%TO.N,/AC_Line*%
X149540000Y-78740000D03*
%TO.P,PS1,7,+VOUT*%
%TO.N,+5V_input*%
X144540000Y-58740000D03*
%TO.P,PS1,9,-VOUT*%
%TO.N,GND*%
X134540000Y-58740000D03*
%TD*%
D12*
%TO.P,U3,1,IP+@1*%
%TO.N,Net-(U3-IP+@1)*%
X35687000Y-70180200D03*
%TO.P,U3,2,IP+@2*%
X36957000Y-70180200D03*
%TO.P,U3,3,IP-@3*%
%TO.N,Net-(U3-IP-@3)*%
X38227000Y-70180200D03*
%TO.P,U3,4,IP-@4*%
X39497000Y-70180200D03*
%TO.P,U3,5,GND*%
%TO.N,GND*%
X39497000Y-64947800D03*
%TO.P,U3,6,FILT*%
%TO.N,Net-(U3-FILT)*%
X38227000Y-64947800D03*
%TO.P,U3,7,VOUT*%
%TO.N,/CurrentSensor01_GPIO4*%
X36957000Y-64947800D03*
%TO.P,U3,8,VCC*%
%TO.N,+5V_input*%
X35687000Y-64947800D03*
%TD*%
D13*
%TO.P,U1,J1_1,3V3*%
%TO.N,+3V3_From_ESP32_S3_W1*%
X88900000Y-38100000D03*
D14*
%TO.P,U1,J1_2,3V3*%
X91440000Y-38100000D03*
%TO.P,U1,J1_3,RST*%
%TO.N,/RST_ESP32*%
X93980000Y-38100000D03*
%TO.P,U1,J1_4,GPIO4*%
%TO.N,/CurrentSensor01_GPIO4*%
X96520000Y-38100000D03*
%TO.P,U1,J1_5,GPIO5*%
%TO.N,/CurrentSensor02_GPIO5*%
X99060000Y-38100000D03*
%TO.P,U1,J1_6,GPIO6*%
%TO.N,/CurrentSensor03_GPIO6*%
X101600000Y-38100000D03*
%TO.P,U1,J1_7,GPIO7*%
%TO.N,/CurrentSensor04_GPIO7*%
X104140000Y-38100000D03*
%TO.P,U1,J1_8,GPIO15*%
%TO.N,/VoltageSensor01_GPIO15*%
X106680000Y-38100000D03*
%TO.P,U1,J1_9,GPIO16*%
%TO.N,/GPIO16*%
X109220000Y-38100000D03*
%TO.P,U1,J1_10,GPIO17*%
%TO.N,/GPIO17*%
X111760000Y-38100000D03*
%TO.P,U1,J1_11,GPIO18*%
%TO.N,/LoRa_NSS-GPIO18*%
X114300000Y-38100000D03*
%TO.P,U1,J1_12,GPIO8*%
%TO.N,/I2C_SCL_GPIO8*%
X116840000Y-38100000D03*
%TO.P,U1,J1_13,GPIO3*%
%TO.N,/GPIO3*%
X119380000Y-38100000D03*
%TO.P,U1,J1_14,GPIO46*%
%TO.N,/LoRa_DIO0-GPIO46*%
X121920000Y-38100000D03*
%TO.P,U1,J1_15,GPIO9*%
%TO.N,/I2C_SDA_GPIO9*%
X124460000Y-38100000D03*
%TO.P,U1,J1_16,GPIO10*%
%TO.N,/GPIO10*%
X127000000Y-38100000D03*
%TO.P,U1,J1_17,GPIO11*%
%TO.N,/LoRa_MOSI-GPIO11*%
X129540000Y-38100000D03*
%TO.P,U1,J1_18,GPIO12*%
%TO.N,/LoRa_SCK-GPIO12*%
X132080000Y-38100000D03*
%TO.P,U1,J1_19,GPIO13*%
%TO.N,/LoRa_MISO-GPIO13*%
X134620000Y-38100000D03*
%TO.P,U1,J1_20,GPIO14*%
%TO.N,/LoRa_RESET-GPIO14*%
X137160000Y-38100000D03*
%TO.P,U1,J1_21,5V0*%
%TO.N,+5V_input*%
X139700000Y-38100000D03*
%TO.P,U1,J1_22,GND*%
%TO.N,GND*%
X142240000Y-38100000D03*
%TO.P,U1,J3_1,GND*%
X88900000Y-12700000D03*
%TO.P,U1,J3_2,U0TXD/GPIO43*%
%TO.N,/GPIO43*%
X91440000Y-12700000D03*
%TO.P,U1,J3_3,U0RXD/GPIO44*%
%TO.N,/GPIO44*%
X93980000Y-12700000D03*
%TO.P,U1,J3_4,GPIO1*%
%TO.N,/GPIO1*%
X96520000Y-12700000D03*
%TO.P,U1,J3_5,GPIO2*%
%TO.N,/GPIO2*%
X99060000Y-12700000D03*
%TO.P,U1,J3_6,MTMS/GPIO42*%
%TO.N,/GPIO42*%
X101600000Y-12700000D03*
%TO.P,U1,J3_7,MTDI/GPIO41*%
%TO.N,/GPIO41*%
X104140000Y-12700000D03*
%TO.P,U1,J3_8,MTDO/GPIO40*%
%TO.N,/GPIO40*%
X106680000Y-12700000D03*
%TO.P,U1,J3_9,MTCK/GPIO39*%
%TO.N,/GPIO39*%
X109220000Y-12700000D03*
%TO.P,U1,J3_10,GPIO38*%
%TO.N,/GPIO38*%
X111760000Y-12700000D03*
%TO.P,U1,J3_11,GPIO37*%
%TO.N,/GPIO37*%
X114300000Y-12700000D03*
%TO.P,U1,J3_12,GPIO36*%
%TO.N,/GPIO36*%
X116840000Y-12700000D03*
%TO.P,U1,J3_13,GPIO35*%
%TO.N,/GPIO35*%
X119380000Y-12700000D03*
%TO.P,U1,J3_14,GPIO0*%
%TO.N,/GPIO0*%
X121920000Y-12700000D03*
%TO.P,U1,J3_15,GPIO45*%
%TO.N,/GPIO45*%
X124460000Y-12700000D03*
%TO.P,U1,J3_16,GPIO48*%
%TO.N,/GPIO48*%
X127000000Y-12700000D03*
%TO.P,U1,J3_17,GPIO47*%
%TO.N,/GPIO47*%
X129540000Y-12700000D03*
%TO.P,U1,J3_18,GPIO21*%
%TO.N,/GPIO21*%
X132080000Y-12700000D03*
%TO.P,U1,J3_19,USB_D+/GPIO20*%
%TO.N,/GPIO20*%
X134620000Y-12700000D03*
%TO.P,U1,J3_20,USB_D-/GPIO19*%
%TO.N,/GPIO19*%
X137160000Y-12700000D03*
%TO.P,U1,J3_21,GND*%
%TO.N,GND*%
X139700000Y-12700000D03*
%TO.P,U1,J3_22,GND*%
X142240000Y-12700000D03*
%TD*%
D15*
%TO.P,D1,1,K*%
%TO.N,GND*%
X13462000Y-58674000D03*
D16*
%TO.P,D1,2,A*%
%TO.N,Net-(D1-A)*%
X13462000Y-56134000D03*
%TD*%
D15*
%TO.P,D2,1,K*%
%TO.N,GND*%
X22098000Y-58674000D03*
D16*
%TO.P,D2,2,A*%
%TO.N,Net-(D2-A)*%
X22098000Y-56134000D03*
%TD*%
D12*
%TO.P,U4,1,IP+@1*%
%TO.N,Net-(U4-IP+@1)*%
X61087000Y-70180200D03*
%TO.P,U4,2,IP+@2*%
X62357000Y-70180200D03*
%TO.P,U4,3,IP-@3*%
%TO.N,Net-(U4-IP-@3)*%
X63627000Y-70180200D03*
%TO.P,U4,4,IP-@4*%
X64897000Y-70180200D03*
%TO.P,U4,5,GND*%
%TO.N,GND*%
X64897000Y-64947800D03*
%TO.P,U4,6,FILT*%
%TO.N,Net-(U4-FILT)*%
X63627000Y-64947800D03*
%TO.P,U4,7,VOUT*%
%TO.N,/CurrentSensor03_GPIO6*%
X62357000Y-64947800D03*
%TO.P,U4,8,VCC*%
%TO.N,+5V_input*%
X61087000Y-64947800D03*
%TD*%
D17*
%TO.P,C10,1*%
%TO.N,Net-(U4-FILT)*%
X56642000Y-48768000D03*
%TO.P,C10,2*%
%TO.N,GND*%
X61642000Y-48768000D03*
%TD*%
%TO.P,C5,1*%
%TO.N,Net-(U3-FILT)*%
X31322000Y-48768000D03*
%TO.P,C5,2*%
%TO.N,GND*%
X36322000Y-48768000D03*
%TD*%
D18*
%TO.P,R14,1*%
%TO.N,/CurrentSensor03_+5V*%
X73152000Y-74422000D03*
%TO.P,R14,2*%
%TO.N,+5V_input*%
X73152000Y-61722000D03*
%TD*%
%TO.P,R10,1*%
%TO.N,/CurrentSensor01_GND*%
X27432000Y-73152000D03*
%TO.P,R10,2*%
%TO.N,GND*%
X27432000Y-60452000D03*
%TD*%
%TO.P,R9,1*%
%TO.N,/CurrentSensor01_+5V*%
X48260000Y-73914000D03*
%TO.P,R9,2*%
%TO.N,+5V_input*%
X48260000Y-61214000D03*
%TD*%
%TO.P,R11,1*%
%TO.N,/CurrentSensor01_+5V*%
X43942000Y-79756000D03*
%TO.P,R11,2*%
%TO.N,Net-(U3-IP+@1)*%
X31242000Y-79756000D03*
%TD*%
%TO.P,R12,1*%
%TO.N,/CurrentSensor01_GND*%
X31242000Y-75184000D03*
%TO.P,R12,2*%
%TO.N,Net-(U3-IP-@3)*%
X43942000Y-75184000D03*
%TD*%
%TO.P,R17,1*%
%TO.N,/CurrentSensor03_GND*%
X56642000Y-75184000D03*
%TO.P,R17,2*%
%TO.N,Net-(U4-IP-@3)*%
X69342000Y-75184000D03*
%TD*%
%TO.P,R16,1*%
%TO.N,/CurrentSensor03_+5V*%
X69342000Y-79756000D03*
%TO.P,R16,2*%
%TO.N,Net-(U4-IP+@1)*%
X56642000Y-79756000D03*
%TD*%
%TO.P,R15,1*%
%TO.N,/CurrentSensor03_GND*%
X52832000Y-73914000D03*
%TO.P,R15,2*%
%TO.N,GND*%
X52832000Y-61214000D03*
%TD*%
D19*
%TO.P,J1,1,Pin_1*%
%TO.N,GND*%
X13462000Y-91440000D03*
D20*
%TO.P,J1,2,Pin_2*%
%TO.N,/VoltageSensor01_Signal*%
X18542000Y-91440000D03*
%TO.P,J1,3,Pin_3*%
%TO.N,+5V_input*%
X23622000Y-91440000D03*
%TD*%
D17*
%TO.P,C4,1*%
%TO.N,/CurrentSensor03_GPIO6*%
X69596000Y-48768000D03*
%TO.P,C4,2*%
%TO.N,GND*%
X64596000Y-48768000D03*
%TD*%
D18*
%TO.P,R3,1*%
%TO.N,/CurrentSensor01_Signal*%
X31496000Y-54102000D03*
%TO.P,R3,2*%
%TO.N,/CurrentSensor01_GPIO4*%
X44196000Y-54102000D03*
%TD*%
%TO.P,R4,1*%
%TO.N,/CurrentSensor01_GPIO4*%
X44196000Y-58420000D03*
%TO.P,R4,2*%
%TO.N,GND*%
X31496000Y-58420000D03*
%TD*%
%TO.P,R8,1*%
%TO.N,/CurrentSensor03_GPIO6*%
X69342000Y-58420000D03*
%TO.P,R8,2*%
%TO.N,GND*%
X56642000Y-58420000D03*
%TD*%
D17*
%TO.P,C2,1*%
%TO.N,/CurrentSensor01_GPIO4*%
X44664000Y-48768000D03*
%TO.P,C2,2*%
%TO.N,GND*%
X39664000Y-48768000D03*
%TD*%
D18*
%TO.P,R2,1*%
%TO.N,/VoltageSensor01_GPIO15*%
X13462000Y-68834000D03*
%TO.P,R2,2*%
%TO.N,GND*%
X13462000Y-81534000D03*
%TD*%
D19*
%TO.P,J2,1,Pin_1*%
%TO.N,/CurrentSensor01_GND*%
X32512000Y-91440000D03*
D20*
%TO.P,J2,2,Pin_2*%
%TO.N,/CurrentSensor01_Signal*%
X37592000Y-91440000D03*
%TO.P,J2,3,Pin_3*%
%TO.N,/CurrentSensor01_+5V*%
X42672000Y-91440000D03*
%TD*%
D19*
%TO.P,J4,1,Pin_1*%
%TO.N,/CurrentSensor03_GND*%
X57912000Y-91440000D03*
D20*
%TO.P,J4,2,Pin_2*%
%TO.N,/CurrentSensor03_Signal*%
X62992000Y-91440000D03*
%TO.P,J4,3,Pin_3*%
%TO.N,/CurrentSensor03_+5V*%
X68072000Y-91440000D03*
%TD*%
D18*
%TO.P,R7,1*%
%TO.N,/CurrentSensor03_Signal*%
X56642000Y-54102000D03*
%TO.P,R7,2*%
%TO.N,/CurrentSensor03_GPIO6*%
X69342000Y-54102000D03*
%TD*%
D17*
%TO.P,C1,1*%
%TO.N,/VoltageSensor01_GPIO15*%
X13502000Y-65278000D03*
%TO.P,C1,2*%
%TO.N,GND*%
X18502000Y-65278000D03*
%TD*%
D18*
%TO.P,R1,1*%
%TO.N,/VoltageSensor01_Signal*%
X21082000Y-81534000D03*
%TO.P,R1,2*%
%TO.N,/VoltageSensor01_GPIO15*%
X21082000Y-68834000D03*
%TD*%
D17*
%TO.P,C8,1*%
%TO.N,GND*%
X29250000Y-43688000D03*
%TO.P,C8,2*%
%TO.N,+5V_input*%
X34250000Y-43688000D03*
%TD*%
D18*
%TO.P,R18,1*%
%TO.N,+5V_input*%
X24130000Y-45974000D03*
%TO.P,R18,2*%
%TO.N,Net-(D2-A)*%
X11430000Y-45974000D03*
%TD*%
%TO.P,R13,1*%
%TO.N,+5V_input*%
X23876000Y-50800000D03*
%TO.P,R13,2*%
%TO.N,Net-(D1-A)*%
X11176000Y-50800000D03*
%TD*%
D17*
%TO.P,C9,1*%
%TO.N,GND*%
X54610000Y-43688000D03*
%TO.P,C9,2*%
%TO.N,+5V_input*%
X59610000Y-43688000D03*
%TD*%
D19*
%TO.P,J14,1,Pin_1*%
%TO.N,/I2C_SDA_GPIO9*%
X85344000Y-91440000D03*
D20*
%TO.P,J14,2,Pin_2*%
%TO.N,/I2C_SCL_GPIO8*%
X90424000Y-91440000D03*
%TO.P,J14,3,Pin_3*%
%TO.N,GND*%
X95504000Y-91440000D03*
%TO.P,J14,4,Pin_4*%
%TO.N,+3V3_From_ESP32_S3_W1*%
X100584000Y-91440000D03*
%TD*%
D21*
%TO.P,J5,1,Pin_1*%
%TO.N,/I2C_SDA_GPIO9*%
X89154000Y-80010000D03*
D22*
%TO.P,J5,2,Pin_2*%
%TO.N,/I2C_SCL_GPIO8*%
X91694000Y-80010000D03*
%TO.P,J5,3,Pin_3*%
%TO.N,GND*%
X94234000Y-80010000D03*
%TO.P,J5,4,Pin_4*%
%TO.N,+3V3_From_ESP32_S3_W1*%
X96774000Y-80010000D03*
%TD*%
D17*
%TO.P,C6,1*%
%TO.N,+3V3_From_ESP32_S3_W1*%
X35640000Y-38100000D03*
%TO.P,C6,2*%
%TO.N,GND*%
X40640000Y-38100000D03*
%TD*%
D23*
%TO.P,U2,1,GND*%
%TO.N,GND*%
X35580000Y-15860000D03*
D24*
%TO.P,U2,2,GND*%
X35480000Y-17860000D03*
%TO.P,U2,3,3.3V*%
%TO.N,+3V3_From_ESP32_S3_W1*%
X35480000Y-19860000D03*
%TO.P,U2,4,RESET*%
%TO.N,/LoRa_RESET-GPIO14*%
X35480000Y-21860000D03*
%TO.P,U2,5,DI00*%
%TO.N,/LoRa_DIO0-GPIO46*%
X35480000Y-23860000D03*
%TO.P,U2,6,DI01*%
%TO.N,/DIO1*%
X35480000Y-25860000D03*
%TO.P,U2,7,DI02*%
%TO.N,/DIO2*%
X35480000Y-27860000D03*
%TO.P,U2,8,DI03*%
%TO.N,/DIO3*%
X35480000Y-29860000D03*
%TO.P,U2,9,GND*%
%TO.N,GND*%
X50880000Y-29860000D03*
%TO.P,U2,10,DI04*%
%TO.N,/DIO4*%
X50880000Y-27860000D03*
%TO.P,U2,11,DI05*%
%TO.N,/DIO5*%
X50880000Y-25860000D03*
%TO.P,U2,12,SCK*%
%TO.N,/LoRa_SCK-GPIO12*%
X50880000Y-23860000D03*
%TO.P,U2,13,MISO*%
%TO.N,/LoRa_MISO-GPIO13*%
X50880000Y-21860000D03*
%TO.P,U2,14,MOSI*%
%TO.N,/LoRa_MOSI-GPIO11*%
X50880000Y-19860000D03*
%TO.P,U2,15,NSS*%
%TO.N,/LoRa_NSS-GPIO18*%
X50880000Y-17860000D03*
%TO.P,U2,16,GND*%
%TO.N,GND*%
X50880000Y-15860000D03*
%TD*%
D25*
%TO.P,J8,1,Pin_1*%
%TO.N,GND*%
X61468000Y-31750000D03*
D26*
%TO.P,J8,2,Pin_2*%
%TO.N,/DIO4*%
X61468000Y-29210000D03*
%TO.P,J8,3,Pin_3*%
%TO.N,/DIO5*%
X61468000Y-26670000D03*
%TO.P,J8,4,Pin_4*%
%TO.N,/LoRa_SCK-GPIO12*%
X61468000Y-24130000D03*
%TO.P,J8,5,Pin_5*%
%TO.N,/LoRa_MISO-GPIO13*%
X61468000Y-21590000D03*
%TO.P,J8,6,Pin_6*%
%TO.N,/LoRa_MOSI-GPIO11*%
X61468000Y-19050000D03*
%TO.P,J8,7,Pin_7*%
%TO.N,/LoRa_NSS-GPIO18*%
X61468000Y-16510000D03*
%TO.P,J8,8,Pin_8*%
%TO.N,GND*%
X61468000Y-13970000D03*
%TD*%
D17*
%TO.P,C7,1*%
%TO.N,+3V3_From_ESP32_S3_W1*%
X50800000Y-38100000D03*
%TO.P,C7,2*%
%TO.N,GND*%
X45800000Y-38100000D03*
%TD*%
D27*
%TO.P,J7,1,Pin_1*%
%TO.N,GND*%
X24892000Y-13970000D03*
D26*
%TO.P,J7,2,Pin_2*%
X24892000Y-16510000D03*
%TO.P,J7,3,Pin_3*%
%TO.N,+3V3_From_ESP32_S3_W1*%
X24892000Y-19050000D03*
%TO.P,J7,4,Pin_4*%
%TO.N,/LoRa_RESET-GPIO14*%
X24892000Y-21590000D03*
%TO.P,J7,5,Pin_5*%
%TO.N,/LoRa_DIO0-GPIO46*%
X24892000Y-24130000D03*
%TO.P,J7,6,Pin_6*%
%TO.N,/DIO1*%
X24892000Y-26670000D03*
%TO.P,J7,7,Pin_7*%
%TO.N,/DIO2*%
X24892000Y-29210000D03*
%TO.P,J7,8,Pin_8*%
%TO.N,/DIO3*%
X24892000Y-31750000D03*
%TD*%
D19*
%TO.P,J6,1,Pin_1*%
%TO.N,GND*%
X111760000Y-91440000D03*
D20*
%TO.P,J6,2,Pin_2*%
%TO.N,+5V_input*%
X116840000Y-91440000D03*
%TD*%
D21*
%TO.P,J10,1,Pin_1*%
%TO.N,+3V3_From_ESP32_S3_W1*%
X88900000Y-43180000D03*
D22*
%TO.P,J10,2,Pin_2*%
X91440000Y-43180000D03*
%TO.P,J10,3,Pin_3*%
%TO.N,/RST_ESP32*%
X93980000Y-43180000D03*
%TO.P,J10,4,Pin_4*%
%TO.N,/CurrentSensor01_GPIO4*%
X96520000Y-43180000D03*
%TO.P,J10,5,Pin_5*%
%TO.N,/CurrentSensor02_GPIO5*%
X99060000Y-43180000D03*
%TO.P,J10,6,Pin_6*%
%TO.N,/CurrentSensor03_GPIO6*%
X101600000Y-43180000D03*
%TO.P,J10,7,Pin_7*%
%TO.N,/CurrentSensor04_GPIO7*%
X104140000Y-43180000D03*
%TO.P,J10,8,Pin_8*%
%TO.N,/VoltageSensor01_GPIO15*%
X106680000Y-43180000D03*
%TO.P,J10,9,Pin_9*%
%TO.N,/GPIO16*%
X109220000Y-43180000D03*
%TO.P,J10,10,Pin_10*%
%TO.N,/GPIO17*%
X111760000Y-43180000D03*
%TO.P,J10,11,Pin_11*%
%TO.N,/LoRa_NSS-GPIO18*%
X114300000Y-43180000D03*
%TO.P,J10,12,Pin_12*%
%TO.N,/I2C_SCL_GPIO8*%
X116840000Y-43180000D03*
%TO.P,J10,13,Pin_13*%
%TO.N,/GPIO3*%
X119380000Y-43180000D03*
%TO.P,J10,14,Pin_14*%
%TO.N,/LoRa_DIO0-GPIO46*%
X121920000Y-43180000D03*
%TO.P,J10,15,Pin_15*%
%TO.N,/I2C_SDA_GPIO9*%
X124460000Y-43180000D03*
%TO.P,J10,16,Pin_16*%
%TO.N,/GPIO10*%
X127000000Y-43180000D03*
%TO.P,J10,17,Pin_17*%
%TO.N,/LoRa_MOSI-GPIO11*%
X129540000Y-43180000D03*
%TO.P,J10,18,Pin_18*%
%TO.N,/LoRa_SCK-GPIO12*%
X132080000Y-43180000D03*
%TO.P,J10,19,Pin_19*%
%TO.N,/LoRa_MISO-GPIO13*%
X134620000Y-43180000D03*
%TO.P,J10,20,Pin_20*%
%TO.N,/LoRa_RESET-GPIO14*%
X137160000Y-43180000D03*
%TO.P,J10,21,Pin_21*%
%TO.N,+5V_input*%
X139700000Y-43180000D03*
%TO.P,J10,22,Pin_22*%
%TO.N,GND*%
X142240000Y-43180000D03*
%TD*%
D21*
%TO.P,J11,1,Pin_1*%
%TO.N,GND*%
X88900000Y-7620000D03*
D22*
%TO.P,J11,2,Pin_2*%
%TO.N,/GPIO43*%
X91440000Y-7620000D03*
%TO.P,J11,3,Pin_3*%
%TO.N,/GPIO44*%
X93980000Y-7620000D03*
%TO.P,J11,4,Pin_4*%
%TO.N,/GPIO1*%
X96520000Y-7620000D03*
%TO.P,J11,5,Pin_5*%
%TO.N,/GPIO2*%
X99060000Y-7620000D03*
%TO.P,J11,6,Pin_6*%
%TO.N,/GPIO42*%
X101600000Y-7620000D03*
%TO.P,J11,7,Pin_7*%
%TO.N,/GPIO41*%
X104140000Y-7620000D03*
%TO.P,J11,8,Pin_8*%
%TO.N,/GPIO40*%
X106680000Y-7620000D03*
%TO.P,J11,9,Pin_9*%
%TO.N,/GPIO39*%
X109220000Y-7620000D03*
%TO.P,J11,10,Pin_10*%
%TO.N,/GPIO38*%
X111760000Y-7620000D03*
%TO.P,J11,11,Pin_11*%
%TO.N,/GPIO37*%
X114300000Y-7620000D03*
%TO.P,J11,12,Pin_12*%
%TO.N,/GPIO36*%
X116840000Y-7620000D03*
%TO.P,J11,13,Pin_13*%
%TO.N,/GPIO35*%
X119380000Y-7620000D03*
%TO.P,J11,14,Pin_14*%
%TO.N,/GPIO0*%
X121920000Y-7620000D03*
%TO.P,J11,15,Pin_15*%
%TO.N,/GPIO45*%
X124460000Y-7620000D03*
%TO.P,J11,16,Pin_16*%
%TO.N,/GPIO48*%
X127000000Y-7620000D03*
%TO.P,J11,17,Pin_17*%
%TO.N,/GPIO47*%
X129540000Y-7620000D03*
%TO.P,J11,18,Pin_18*%
%TO.N,/GPIO21*%
X132080000Y-7620000D03*
%TO.P,J11,19,Pin_19*%
%TO.N,/GPIO20*%
X134620000Y-7620000D03*
%TO.P,J11,20,Pin_20*%
%TO.N,/GPIO19*%
X137160000Y-7620000D03*
%TO.P,J11,21,Pin_21*%
%TO.N,GND*%
X139700000Y-7620000D03*
%TO.P,J11,22,Pin_22*%
X142240000Y-7620000D03*
%TD*%
D19*
%TO.P,J9,1,Pin_1*%
%TO.N,/AC_NEUTRAL*%
X137160000Y-91440000D03*
D20*
%TO.P,J9,2,Pin_2*%
%TO.N,/AC_Line*%
X142240000Y-91440000D03*
%TD*%
D28*
%TO.P,PS2,1,VAC_IN(L)*%
%TO.N,/AC_Line*%
X136570000Y-74311500D03*
D29*
%TO.P,PS2,2,VAC_IN(N)*%
%TO.N,/AC_NEUTRAL*%
X132670000Y-74311500D03*
%TO.P,PS2,5,+VOUT*%
%TO.N,+5V_input*%
X131380000Y-53551500D03*
%TO.P,PS2,4,-VOUT*%
%TO.N,GND*%
X141540000Y-53551500D03*
%TO.P,PS2,3,NC*%
%TO.N,unconnected-(PS2-NC-Pad3)*%
X152970000Y-53551500D03*
%TD*%
D21*
%TO.P,J13,1,Pin_1*%
%TO.N,GND*%
X55880000Y-13970000D03*
D22*
%TO.P,J13,2,Pin_2*%
%TO.N,/LoRa_NSS-GPIO18*%
X55880000Y-16510000D03*
%TO.P,J13,3,Pin_3*%
%TO.N,/LoRa_MOSI-GPIO11*%
X55880000Y-19050000D03*
%TO.P,J13,4,Pin_4*%
%TO.N,/LoRa_MISO-GPIO13*%
X55880000Y-21590000D03*
%TO.P,J13,5,Pin_5*%
%TO.N,/LoRa_SCK-GPIO12*%
X55880000Y-24130000D03*
%TO.P,J13,6,Pin_6*%
%TO.N,/DIO5*%
X55880000Y-26670000D03*
%TO.P,J13,7,Pin_7*%
%TO.N,/DIO4*%
X55880000Y-29210000D03*
%TO.P,J13,8,Pin_8*%
%TO.N,GND*%
X55880000Y-31750000D03*
%TD*%
D21*
%TO.P,J12,1,Pin_1*%
%TO.N,GND*%
X30480000Y-13970000D03*
D22*
%TO.P,J12,2,Pin_2*%
X30480000Y-16510000D03*
%TO.P,J12,3,Pin_3*%
%TO.N,+3V3_From_ESP32_S3_W1*%
X30480000Y-19050000D03*
%TO.P,J12,4,Pin_4*%
%TO.N,/LoRa_RESET-GPIO14*%
X30480000Y-21590000D03*
%TO.P,J12,5,Pin_5*%
%TO.N,/LoRa_DIO0-GPIO46*%
X30480000Y-24130000D03*
%TO.P,J12,6,Pin_6*%
%TO.N,/DIO1*%
X30480000Y-26670000D03*
%TO.P,J12,7,Pin_7*%
%TO.N,/DIO2*%
X30480000Y-29210000D03*
%TO.P,J12,8,Pin_8*%
%TO.N,/DIO3*%
X30480000Y-31750000D03*
%TD*%
D30*
%TO.N,+3V3_From_ESP32_S3_W1*%
X91440000Y-50800000D03*
X91440000Y-58420000D03*
%TO.N,/I2C_SDA_GPIO9*%
X119380000Y-48260000D03*
X114300000Y-48260000D03*
%TO.N,Net-(U4-FILT)*%
X62392000Y-62230000D03*
%TO.N,/VoltageSensor01_GPIO15*%
X27178000Y-46228000D03*
X49022000Y-46228000D03*
%TO.N,GND*%
X66294000Y-64770000D03*
%TO.N,+5V_input*%
X39370000Y-60960000D03*
%TO.N,/VoltageSensor01_GPIO15*%
X106680000Y-46228000D03*
X93980000Y-46228000D03*
%TO.N,/LoRa_DIO0-GPIO46*%
X40640000Y-11938000D03*
%TO.N,/LoRa_RESET-GPIO14*%
X38100000Y-10160000D03*
%TO.N,/LoRa_SCK-GPIO12*%
X76200000Y-30480000D03*
X129540000Y-30480000D03*
%TO.N,/LoRa_MOSI-GPIO11*%
X104140000Y-20320000D03*
X96520000Y-20320000D03*
%TO.N,/LoRa_RESET-GPIO14*%
X76454000Y-11938000D03*
X126746000Y-21844000D03*
%TO.N,/LoRa_MISO-GPIO13*%
X76200000Y-25400000D03*
X127000000Y-25400000D03*
%TO.N,/LoRa_DIO0-GPIO46*%
X111760000Y-23876000D03*
X72898000Y-11938000D03*
%TO.N,/LoRa_RESET-GPIO14*%
X38100000Y-21844000D03*
%TO.N,/LoRa_DIO0-GPIO46*%
X38100000Y-23876000D03*
%TD*%
D31*
%TO.N,/CurrentSensor03_+5V*%
X73152000Y-77470000D02*
X73152000Y-74422000D01*
X70866000Y-79756000D02*
X73152000Y-77470000D01*
X69342000Y-79756000D02*
X70866000Y-79756000D01*
X69342000Y-90170000D02*
X69342000Y-79756000D01*
X68072000Y-91440000D02*
X69342000Y-90170000D01*
%TO.N,/CurrentSensor01_+5V*%
X43942000Y-90170000D02*
X43942000Y-79756000D01*
X42672000Y-91440000D02*
X43942000Y-90170000D01*
%TO.N,Net-(D1-A)*%
X11176000Y-53848000D02*
X11176000Y-50800000D01*
X13462000Y-56134000D02*
X11176000Y-53848000D01*
%TO.N,Net-(D2-A)*%
X21590000Y-56134000D02*
X22098000Y-56134000D01*
X11430000Y-45974000D02*
X21590000Y-56134000D01*
%TO.N,GND*%
X15922000Y-58674000D02*
X13462000Y-58674000D01*
X18502000Y-61254000D02*
X15922000Y-58674000D01*
X18502000Y-61254000D02*
X19518000Y-61254000D01*
X19518000Y-61254000D02*
X22098000Y-58674000D01*
X18502000Y-65278000D02*
X18502000Y-61254000D01*
%TO.N,/VoltageSensor01_Signal*%
X21082000Y-83312000D02*
X18542000Y-85852000D01*
X21082000Y-81534000D02*
X21082000Y-83312000D01*
X18542000Y-85852000D02*
X18542000Y-91694000D01*
D32*
%TO.N,+5V_input*%
X23876000Y-91694000D02*
X23622000Y-91694000D01*
X27686000Y-95504000D02*
X23876000Y-91694000D01*
X79248000Y-95504000D02*
X27686000Y-95504000D01*
D31*
%TO.N,GND*%
X34544000Y-46990000D02*
X36322000Y-48768000D01*
X29972000Y-46990000D02*
X34544000Y-46990000D01*
D33*
%TO.N,/LoRa_NSS-GPIO18*%
X114300000Y-33780000D02*
X114300000Y-38100000D01*
X97030000Y-16510000D02*
X114300000Y-33780000D01*
X76200000Y-16510000D02*
X97030000Y-16510000D01*
D31*
%TO.N,/CurrentSensor03_GPIO6*%
X69342000Y-54102000D02*
X69342000Y-49022000D01*
X69342000Y-49022000D02*
X69596000Y-48768000D01*
D34*
%TO.N,GND*%
X60706000Y-58420000D02*
X56642000Y-58420000D01*
X65074800Y-62788800D02*
X60706000Y-58420000D01*
X65074800Y-64770000D02*
X65074800Y-62788800D01*
X66294000Y-64770000D02*
X65074800Y-64770000D01*
D31*
%TO.N,Net-(U4-FILT)*%
X63627000Y-63465000D02*
X63627000Y-64947800D01*
X62392000Y-62230000D02*
X63627000Y-63465000D01*
D32*
%TO.N,GND*%
X56134000Y-58420000D02*
X56642000Y-58420000D01*
X53340000Y-61214000D02*
X56134000Y-58420000D01*
X52832000Y-61214000D02*
X53340000Y-61214000D01*
%TO.N,+3V3_From_ESP32_S3_W1*%
X32560000Y-19860000D02*
X35480000Y-19860000D01*
X30480000Y-19050000D02*
X31750000Y-19050000D01*
X31750000Y-19050000D02*
X32560000Y-19860000D01*
D33*
%TO.N,/LoRa_RESET-GPIO14*%
X137160000Y-32258000D02*
X126746000Y-21844000D01*
X137160000Y-32258000D02*
X137160000Y-38100000D01*
D35*
%TO.N,/VoltageSensor01_GPIO15*%
X93980000Y-46228000D02*
X49022000Y-46228000D01*
D31*
%TO.N,/CurrentSensor01_GPIO4*%
X96520000Y-45720000D02*
X96520000Y-43180000D01*
X95250000Y-46990000D02*
X96520000Y-45720000D01*
X46442000Y-46990000D02*
X95250000Y-46990000D01*
X44664000Y-48768000D02*
X46442000Y-46990000D01*
%TO.N,+3V3_From_ESP32_S3_W1*%
X91440000Y-58420000D02*
X91440000Y-50800000D01*
%TO.N,/I2C_SCL_GPIO8*%
X90424000Y-81280000D02*
X91694000Y-80010000D01*
X90424000Y-91440000D02*
X90424000Y-81280000D01*
%TO.N,/I2C_SDA_GPIO9*%
X85344000Y-83820000D02*
X89154000Y-80010000D01*
X85344000Y-91440000D02*
X85344000Y-83820000D01*
%TO.N,+3V3_From_ESP32_S3_W1*%
X100584000Y-83820000D02*
X100584000Y-91440000D01*
X96774000Y-80010000D02*
X100584000Y-83820000D01*
%TO.N,GND*%
X95504000Y-81280000D02*
X95504000Y-91440000D01*
X94234000Y-80010000D02*
X95504000Y-81280000D01*
%TO.N,/I2C_SDA_GPIO9*%
X124460000Y-45720000D02*
X124460000Y-43180000D01*
X121920000Y-48260000D02*
X124460000Y-45720000D01*
X89154000Y-73406000D02*
X114300000Y-48260000D01*
X119380000Y-48260000D02*
X121920000Y-48260000D01*
X89154000Y-80010000D02*
X89154000Y-73406000D01*
%TO.N,/I2C_SCL_GPIO8*%
X116840000Y-54864000D02*
X116840000Y-43180000D01*
X91694000Y-80010000D02*
X116840000Y-54864000D01*
%TO.N,Net-(U4-IP-@3)*%
X63627000Y-70180200D02*
X64897000Y-70180200D01*
%TO.N,/CurrentSensor03_GPIO6*%
X69342000Y-63333943D02*
X69342000Y-58420000D01*
X62505300Y-66401000D02*
X66274943Y-66401000D01*
X62357000Y-66252700D02*
X62505300Y-66401000D01*
X66274943Y-66401000D02*
X69342000Y-63333943D01*
X62357000Y-64947800D02*
X62357000Y-66252700D01*
%TO.N,+5V_input*%
X41270999Y-44789000D02*
X41185999Y-44704000D01*
X58509000Y-44789000D02*
X41270999Y-44789000D01*
X59610000Y-43688000D02*
X58509000Y-44789000D01*
D32*
%TO.N,GND*%
X64596000Y-48768000D02*
X61642000Y-48768000D01*
D31*
%TO.N,/CurrentSensor03_GPIO6*%
X96012000Y-48768000D02*
X101600000Y-43180000D01*
X69596000Y-48768000D02*
X96012000Y-48768000D01*
%TO.N,GND*%
X29250000Y-46268000D02*
X29972000Y-46990000D01*
X29250000Y-43688000D02*
X29250000Y-46268000D01*
%TO.N,+5V_input*%
X40169999Y-43688000D02*
X34250000Y-43688000D01*
X27517000Y-42587000D02*
X24130000Y-45974000D01*
X34250000Y-43688000D02*
X33149000Y-42587000D01*
X33149000Y-42587000D02*
X27517000Y-42587000D01*
X23876000Y-46228000D02*
X24130000Y-45974000D01*
X23876000Y-50800000D02*
X23876000Y-46228000D01*
D32*
X112776000Y-95504000D02*
X79248000Y-95504000D01*
D35*
%TO.N,/VoltageSensor01_GPIO15*%
X21082000Y-63500000D02*
X27178000Y-57404000D01*
X21082000Y-68834000D02*
X21082000Y-63500000D01*
D31*
%TO.N,/CurrentSensor01_GND*%
X27432000Y-86868000D02*
X27432000Y-73152000D01*
X32512000Y-91948000D02*
X27432000Y-86868000D01*
X32512000Y-91440000D02*
X32512000Y-91948000D01*
%TO.N,+5V_input*%
X41185999Y-44704000D02*
X40169999Y-43688000D01*
X41185999Y-44704000D02*
X41185999Y-59144001D01*
X61214000Y-65074800D02*
X61214000Y-66802000D01*
X61087000Y-64947800D02*
X61214000Y-65074800D01*
D35*
%TO.N,/VoltageSensor01_GPIO15*%
X13462000Y-68834000D02*
X21082000Y-68834000D01*
D31*
%TO.N,+5V_input*%
X68072000Y-66802000D02*
X73152000Y-61722000D01*
D32*
X79248000Y-67818000D02*
X73152000Y-61722000D01*
X79248000Y-95504000D02*
X79248000Y-67818000D01*
D31*
X61214000Y-66802000D02*
X68072000Y-66802000D01*
%TO.N,/CurrentSensor03_GPIO6*%
X69342000Y-54102000D02*
X69342000Y-58420000D01*
%TO.N,/CurrentSensor03_GND*%
X52832000Y-86360000D02*
X52832000Y-73914000D01*
X57912000Y-91440000D02*
X52832000Y-86360000D01*
%TO.N,Net-(U3-IP+@1)*%
X35687000Y-70180200D02*
X35687000Y-75311000D01*
X35687000Y-75311000D02*
X31242000Y-79756000D01*
%TO.N,Net-(U3-IP-@3)*%
X39497000Y-70180200D02*
X39497000Y-70739000D01*
%TO.N,/CurrentSensor01_GPIO4*%
X39441100Y-61722000D02*
X44196000Y-61722000D01*
%TO.N,Net-(U3-IP-@3)*%
X39497000Y-70739000D02*
X43942000Y-75184000D01*
%TO.N,/CurrentSensor01_GPIO4*%
X44664000Y-53634000D02*
X44196000Y-54102000D01*
%TO.N,Net-(U3-IP+@1)*%
X35687000Y-70180200D02*
X36957000Y-70180200D01*
%TO.N,/CurrentSensor01_GPIO4*%
X36957000Y-64206100D02*
X39441100Y-61722000D01*
X44664000Y-48768000D02*
X44664000Y-53634000D01*
X44196000Y-54102000D02*
X44196000Y-58420000D01*
%TO.N,GND*%
X35052000Y-67564000D02*
X31496000Y-64008000D01*
X31496000Y-64008000D02*
X31496000Y-58420000D01*
X37680900Y-67564000D02*
X35052000Y-67564000D01*
X39497000Y-64947800D02*
X39497000Y-65747900D01*
X39497000Y-65747900D02*
X37680900Y-67564000D01*
%TO.N,/CurrentSensor01_GPIO4*%
X44196000Y-61722000D02*
X44196000Y-58420000D01*
%TO.N,Net-(U3-FILT)*%
X38227000Y-64947800D02*
X38227000Y-66252700D01*
%TO.N,/CurrentSensor01_GPIO4*%
X36957000Y-64947800D02*
X36957000Y-64206100D01*
%TO.N,Net-(U4-IP+@1)*%
X62357000Y-70180200D02*
X61087000Y-70180200D01*
%TO.N,Net-(U3-FILT)*%
X37423700Y-67056000D02*
X35111100Y-67056000D01*
%TO.N,/CurrentSensor03_GND*%
X54102000Y-75184000D02*
X56642000Y-75184000D01*
%TO.N,GND*%
X31496000Y-58420000D02*
X28956000Y-55880000D01*
%TO.N,Net-(U3-FILT)*%
X35111100Y-67056000D02*
X35081200Y-67026100D01*
X35081200Y-67026100D02*
X35081200Y-52527200D01*
%TO.N,GND*%
X28956000Y-48006000D02*
X29972000Y-46990000D01*
%TO.N,Net-(U3-FILT)*%
X38227000Y-66252700D02*
X37423700Y-67056000D01*
%TO.N,/CurrentSensor03_GND*%
X52832000Y-73914000D02*
X54102000Y-75184000D01*
%TO.N,Net-(U4-IP+@1)*%
X61087000Y-75311000D02*
X61087000Y-70180200D01*
%TO.N,Net-(U3-FILT)*%
X35081200Y-52527200D02*
X31322000Y-48768000D01*
%TO.N,/CurrentSensor01_+5V*%
X45466000Y-79756000D02*
X48260000Y-76962000D01*
%TO.N,+5V_input*%
X41185999Y-59144001D02*
X39370000Y-60960000D01*
%TO.N,/CurrentSensor01_+5V*%
X43942000Y-79756000D02*
X45466000Y-79756000D01*
%TO.N,Net-(U4-IP+@1)*%
X56642000Y-79756000D02*
X61087000Y-75311000D01*
%TO.N,GND*%
X28956000Y-55880000D02*
X28956000Y-48006000D01*
%TO.N,/CurrentSensor01_+5V*%
X48260000Y-76962000D02*
X48260000Y-73914000D01*
%TO.N,/CurrentSensor01_GND*%
X29464000Y-75184000D02*
X27432000Y-73152000D01*
X31242000Y-75184000D02*
X29464000Y-75184000D01*
%TO.N,Net-(U3-IP-@3)*%
X39497000Y-70180200D02*
X38227000Y-70180200D01*
%TO.N,GND*%
X36322000Y-48768000D02*
X39664000Y-48768000D01*
%TO.N,+5V_input*%
X48260000Y-61214000D02*
X51993800Y-64947800D01*
%TO.N,/VoltageSensor01_GPIO15*%
X13502000Y-65278000D02*
X13502000Y-68794000D01*
%TO.N,+5V_input*%
X51993800Y-64947800D02*
X61087000Y-64947800D01*
D36*
%TO.N,GND*%
X65074800Y-64770000D02*
X64897000Y-64947800D01*
D31*
%TO.N,/VoltageSensor01_GPIO15*%
X13502000Y-68794000D02*
X13462000Y-68834000D01*
%TO.N,+5V_input*%
X35687000Y-64947800D02*
X35687000Y-64227000D01*
X35687000Y-64227000D02*
X38954000Y-60960000D01*
X38954000Y-60960000D02*
X39370000Y-60960000D01*
%TO.N,GND*%
X13462000Y-91694000D02*
X13462000Y-81534000D01*
D32*
%TO.N,+5V_input*%
X116840000Y-91440000D02*
X112776000Y-95504000D01*
D35*
%TO.N,/VoltageSensor01_GPIO15*%
X106680000Y-46228000D02*
X106680000Y-43180000D01*
D32*
%TO.N,+3V3_From_ESP32_S3_W1*%
X83312000Y-37592000D02*
X88900000Y-43180000D01*
X51308000Y-37592000D02*
X83312000Y-37592000D01*
X50800000Y-38100000D02*
X51308000Y-37592000D01*
%TO.N,GND*%
X30480000Y-13970000D02*
X30480000Y-16510000D01*
X30480000Y-16510000D02*
X24892000Y-16510000D01*
X24892000Y-13970000D02*
X24892000Y-16510000D01*
X30480000Y-13970000D02*
X24892000Y-13970000D01*
%TO.N,+3V3_From_ESP32_S3_W1*%
X24892000Y-19050000D02*
X30480000Y-19050000D01*
D31*
%TO.N,/LoRa_RESET-GPIO14*%
X24892000Y-21590000D02*
X30480000Y-21590000D01*
%TO.N,/LoRa_DIO0-GPIO46*%
X24892000Y-24130000D02*
X30480000Y-24130000D01*
%TO.N,/DIO1*%
X24892000Y-26670000D02*
X30480000Y-26670000D01*
%TO.N,/DIO2*%
X24892000Y-29210000D02*
X30480000Y-29210000D01*
%TO.N,/DIO3*%
X24892000Y-31750000D02*
X30480000Y-31750000D01*
D33*
%TO.N,/LoRa_DIO0-GPIO46*%
X72898000Y-11938000D02*
X40640000Y-11938000D01*
%TO.N,/LoRa_RESET-GPIO14*%
X74676000Y-10160000D02*
X38100000Y-10160000D01*
X76454000Y-11938000D02*
X74676000Y-10160000D01*
D31*
%TO.N,/DIO4*%
X55880000Y-29210000D02*
X61468000Y-29210000D01*
%TO.N,/DIO5*%
X61468000Y-26670000D02*
X55880000Y-26670000D01*
D33*
%TO.N,/LoRa_NSS-GPIO18*%
X76200000Y-16510000D02*
X55880000Y-16510000D01*
%TO.N,/LoRa_MOSI-GPIO11*%
X64770000Y-19050000D02*
X55880000Y-19050000D01*
X66040000Y-20320000D02*
X64770000Y-19050000D01*
X76200000Y-20320000D02*
X66040000Y-20320000D01*
%TO.N,/LoRa_SCK-GPIO12*%
X61468000Y-24130000D02*
X55880000Y-24130000D01*
X67818000Y-30480000D02*
X61468000Y-24130000D01*
X76200000Y-30480000D02*
X67818000Y-30480000D01*
D32*
%TO.N,GND*%
X34130000Y-16510000D02*
X35480000Y-17860000D01*
X30480000Y-16510000D02*
X34130000Y-16510000D01*
X35580000Y-13990000D02*
X35560000Y-13970000D01*
X35560000Y-13970000D02*
X30480000Y-13970000D01*
X35580000Y-15860000D02*
X35580000Y-13990000D01*
D33*
%TO.N,/LoRa_DIO0-GPIO46*%
X35210000Y-24130000D02*
X35480000Y-23860000D01*
%TO.N,/LoRa_RESET-GPIO14*%
X35210000Y-21590000D02*
X35480000Y-21860000D01*
D32*
%TO.N,GND*%
X90422000Y-3048000D02*
X88900000Y-4570000D01*
X88900000Y-7620000D02*
X88900000Y-12700000D01*
X88900000Y-4570000D02*
X88900000Y-7620000D01*
X139700000Y-7620000D02*
X139700000Y-4320000D01*
X50880000Y-29860000D02*
X52770000Y-31750000D01*
X52770000Y-13970000D02*
X55880000Y-13970000D01*
X138428000Y-3048000D02*
X90422000Y-3048000D01*
X139700000Y-4320000D02*
X138428000Y-3048000D01*
X52770000Y-31750000D02*
X55880000Y-31750000D01*
%TO.N,+5V_input*%
X131380000Y-53551500D02*
X139700000Y-45231500D01*
X139700000Y-43180000D02*
X139700000Y-38100000D01*
X131529500Y-53551500D02*
X133858000Y-55880000D01*
X144526000Y-56642000D02*
X144526000Y-58726000D01*
X116840000Y-64516000D02*
X138684000Y-64516000D01*
X138684000Y-64516000D02*
X144460000Y-58740000D01*
X116840000Y-91440000D02*
X116840000Y-64516000D01*
X131380000Y-53551500D02*
X131529500Y-53551500D01*
X139700000Y-45231500D02*
X139700000Y-43180000D01*
X133858000Y-55880000D02*
X143764000Y-55880000D01*
X143764000Y-55880000D02*
X144526000Y-56642000D01*
X144460000Y-58740000D02*
X144540000Y-58740000D01*
X144526000Y-58726000D02*
X144540000Y-58740000D01*
%TO.N,+3V3_From_ESP32_S3_W1*%
X45466000Y-32766000D02*
X40974000Y-32766000D01*
D34*
X88900000Y-38100000D02*
X88900000Y-43180000D01*
X91440000Y-38100000D02*
X91440000Y-43180000D01*
D32*
X50800000Y-38100000D02*
X45466000Y-32766000D01*
D34*
X88900000Y-38100000D02*
X91440000Y-38100000D01*
X88900000Y-43180000D02*
X91440000Y-43180000D01*
D32*
X40974000Y-32766000D02*
X35640000Y-38100000D01*
D31*
%TO.N,/LoRa_SCK-GPIO12*%
X132080000Y-38100000D02*
X132080000Y-43180000D01*
D33*
X132080000Y-38100000D02*
X132080000Y-33020000D01*
X132080000Y-33020000D02*
X129540000Y-30480000D01*
%TO.N,/LoRa_MOSI-GPIO11*%
X129540000Y-33780000D02*
X116080000Y-20320000D01*
X129540000Y-38100000D02*
X129540000Y-33780000D01*
X116080000Y-20320000D02*
X104140000Y-20320000D01*
X96520000Y-20320000D02*
X76200000Y-20320000D01*
D31*
X129540000Y-38100000D02*
X129540000Y-43180000D01*
D33*
%TO.N,/LoRa_NSS-GPIO18*%
X54530000Y-17860000D02*
X55880000Y-16510000D01*
D31*
X114300000Y-38100000D02*
X114300000Y-43180000D01*
%TO.N,/LoRa_RESET-GPIO14*%
X137160000Y-38100000D02*
X137160000Y-43180000D01*
%TO.N,/LoRa_MISO-GPIO13*%
X134620000Y-38100000D02*
X134620000Y-43180000D01*
D33*
X66040000Y-25400000D02*
X62230000Y-21590000D01*
X76200000Y-25400000D02*
X66040000Y-25400000D01*
X134620000Y-33020000D02*
X127000000Y-25400000D01*
X134620000Y-38100000D02*
X134620000Y-33020000D01*
X62230000Y-21590000D02*
X55880000Y-21590000D01*
D31*
%TO.N,/CurrentSensor01_GPIO4*%
X96520000Y-38100000D02*
X96520000Y-43180000D01*
%TO.N,/CurrentSensor02_GPIO5*%
X99060000Y-38100000D02*
X99060000Y-43180000D01*
%TO.N,/CurrentSensor03_GPIO6*%
X101600000Y-38100000D02*
X101600000Y-43180000D01*
%TO.N,/CurrentSensor04_GPIO7*%
X104140000Y-38100000D02*
X104140000Y-43180000D01*
%TO.N,/VoltageSensor01_GPIO15*%
X106680000Y-38100000D02*
X106680000Y-43180000D01*
D33*
%TO.N,/LoRa_DIO0-GPIO46*%
X121920000Y-38100000D02*
X121920000Y-33780000D01*
D31*
X121920000Y-38100000D02*
X121920000Y-43180000D01*
D33*
X121920000Y-33780000D02*
X112016000Y-23876000D01*
X112016000Y-23876000D02*
X111760000Y-23876000D01*
D31*
%TO.N,/I2C_SDA_GPIO9*%
X124460000Y-38100000D02*
X124460000Y-43180000D01*
%TO.N,/RST_ESP32*%
X93980000Y-38100000D02*
X93980000Y-43180000D01*
%TO.N,/I2C_SCL_GPIO8*%
X116840000Y-38100000D02*
X116840000Y-43180000D01*
%TO.N,/GPIO16*%
X109220000Y-38100000D02*
X109220000Y-43180000D01*
%TO.N,/GPIO3*%
X119380000Y-38100000D02*
X119380000Y-43180000D01*
%TO.N,/GPIO17*%
X111760000Y-38100000D02*
X111760000Y-43180000D01*
%TO.N,/GPIO10*%
X127000000Y-38100000D02*
X127000000Y-43180000D01*
%TO.N,/GPIO43*%
X91440000Y-7620000D02*
X91440000Y-12700000D01*
%TO.N,/GPIO44*%
X93980000Y-12700000D02*
X93980000Y-7620000D01*
%TO.N,/GPIO1*%
X96520000Y-7620000D02*
X96520000Y-12700000D01*
%TO.N,/GPIO37*%
X114300000Y-7620000D02*
X114300000Y-12700000D01*
%TO.N,/GPIO41*%
X104140000Y-7620000D02*
X104140000Y-12700000D01*
%TO.N,/GPIO0*%
X121920000Y-7620000D02*
X121920000Y-12700000D01*
%TO.N,/GPIO39*%
X109220000Y-7620000D02*
X109220000Y-12700000D01*
%TO.N,/GPIO35*%
X119380000Y-7620000D02*
X119380000Y-12700000D01*
%TO.N,/GPIO48*%
X127000000Y-7620000D02*
X127000000Y-12700000D01*
%TO.N,/GPIO19*%
X137160000Y-7620000D02*
X137160000Y-12700000D01*
%TO.N,/GPIO45*%
X124460000Y-7620000D02*
X124460000Y-12700000D01*
%TO.N,/GPIO36*%
X116840000Y-7620000D02*
X116840000Y-12700000D01*
%TO.N,/GPIO38*%
X111760000Y-7620000D02*
X111760000Y-12700000D01*
%TO.N,/GPIO2*%
X99060000Y-7620000D02*
X99060000Y-12700000D01*
%TO.N,/GPIO47*%
X129540000Y-7620000D02*
X129540000Y-12700000D01*
%TO.N,/GPIO20*%
X134620000Y-7620000D02*
X134620000Y-12700000D01*
%TO.N,/GPIO42*%
X101600000Y-7620000D02*
X101600000Y-12700000D01*
%TO.N,/GPIO40*%
X106680000Y-7620000D02*
X106680000Y-12700000D01*
%TO.N,/GPIO21*%
X132080000Y-7620000D02*
X132080000Y-12700000D01*
D33*
%TO.N,/DIO3*%
X32370000Y-29860000D02*
X35480000Y-29860000D01*
%TO.N,/DIO2*%
X31830000Y-27860000D02*
X35480000Y-27860000D01*
%TO.N,/DIO1*%
X33322000Y-25860000D02*
X35480000Y-25860000D01*
%TO.N,/LoRa_DIO0-GPIO46*%
X30480000Y-24130000D02*
X35210000Y-24130000D01*
%TO.N,/LoRa_RESET-GPIO14*%
X30480000Y-21590000D02*
X35210000Y-21590000D01*
%TO.N,/LoRa_DIO0-GPIO46*%
X38100000Y-23876000D02*
X38084000Y-23860000D01*
%TO.N,/LoRa_RESET-GPIO14*%
X38100000Y-21844000D02*
X38084000Y-21860000D01*
%TO.N,/LoRa_DIO0-GPIO46*%
X38084000Y-23860000D02*
X35480000Y-23860000D01*
%TO.N,/LoRa_RESET-GPIO14*%
X38084000Y-21860000D02*
X35480000Y-21860000D01*
%TO.N,/LoRa_MOSI-GPIO11*%
X50880000Y-19860000D02*
X55070000Y-19860000D01*
%TO.N,/LoRa_MISO-GPIO13*%
X50880000Y-21860000D02*
X55610000Y-21860000D01*
%TO.N,/LoRa_SCK-GPIO12*%
X50880000Y-23860000D02*
X55610000Y-23860000D01*
%TO.N,/DIO5*%
X50880000Y-25860000D02*
X55070000Y-25860000D01*
%TO.N,/DIO4*%
X54530000Y-27860000D02*
X50880000Y-27860000D01*
X55880000Y-29210000D02*
X54530000Y-27860000D01*
%TO.N,/DIO5*%
X55070000Y-25860000D02*
X55880000Y-26670000D01*
%TO.N,/LoRa_MISO-GPIO13*%
X55610000Y-21860000D02*
X55880000Y-21590000D01*
%TO.N,/LoRa_SCK-GPIO12*%
X55610000Y-23860000D02*
X55880000Y-24130000D01*
%TO.N,/LoRa_MOSI-GPIO11*%
X55070000Y-19860000D02*
X55880000Y-19050000D01*
%TO.N,/LoRa_NSS-GPIO18*%
X50880000Y-17860000D02*
X54530000Y-17860000D01*
D32*
%TO.N,GND*%
X50880000Y-15860000D02*
X52770000Y-13970000D01*
X35580000Y-17760000D02*
X35480000Y-17860000D01*
X35580000Y-15860000D02*
X35580000Y-17760000D01*
X35580000Y-15860000D02*
X50880000Y-15860000D01*
D33*
%TO.N,/DIO1*%
X32512000Y-26670000D02*
X33322000Y-25860000D01*
X30480000Y-26670000D02*
X32512000Y-26670000D01*
%TO.N,/DIO3*%
X30480000Y-31750000D02*
X32370000Y-29860000D01*
%TO.N,/DIO2*%
X30480000Y-29210000D02*
X31830000Y-27860000D01*
D35*
%TO.N,/VoltageSensor01_GPIO15*%
X27178000Y-57404000D02*
X27178000Y-46228000D01*
D31*
%TO.N,Net-(U4-IP-@3)*%
X64897000Y-70739000D02*
X69342000Y-75184000D01*
X64897000Y-70180200D02*
X64897000Y-70739000D01*
%TD*%
%TA.AperFunction,Conductor*%
%TO.N,/AC_Line*%
G36*
X150819039Y-73171685D02*
G01*
X150864794Y-73224489D01*
X150876000Y-73276000D01*
X150876000Y-80140000D01*
X150856315Y-80207039D01*
X150803511Y-80252794D01*
X150752000Y-80264000D01*
X144272000Y-80264000D01*
X144272000Y-93348000D01*
X144252315Y-93415039D01*
X144199511Y-93460794D01*
X144148000Y-93472000D01*
X140341497Y-93472000D01*
X140274458Y-93452315D01*
X140228703Y-93399511D01*
X140217497Y-93348088D01*
X140208181Y-80264000D01*
X135760000Y-80264000D01*
X135692961Y-80244315D01*
X135647206Y-80191511D01*
X135636000Y-80140000D01*
X135636000Y-73276000D01*
X135655685Y-73208961D01*
X135708489Y-73163206D01*
X135760000Y-73152000D01*
X150752000Y-73152000D01*
X150819039Y-73171685D01*
G37*
%TD.AperFunction*%
%TD*%
M02*
