%TF.GenerationSoftware,KiCad,Pcbnew,9.0.2*%
%TF.CreationDate,2026-05-25T16:13:47-06:00*%
%TF.ProjectId,Walle_E_ESP32_S3_Node_v2,57616c6c-655f-4455-9f45-535033325f53,rev?*%
%TF.SameCoordinates,Original*%
%TF.FileFunction,Soldermask,Top*%
%TF.FilePolarity,Negative*%
%FSLAX46Y46*%
G04 Gerber Fmt 4.6, Leading zero omitted, Abs format (unit mm)*
G04 Created by KiCad (PCBNEW 9.0.2) date 2026-05-25 16:13:47*
%MOMM*%
%LPD*%
G01*
G04 APERTURE LIST*
G04 Aperture macros list*
%AMRoundRect*
0 Rectangle with rounded corners*
0 $1 Rounding radius*
0 $2 $3 $4 $5 $6 $7 $8 $9 X,Y pos of 4 corners*
0 Add a 4 corners polygon primitive as box body*
4,1,4,$2,$3,$4,$5,$6,$7,$8,$9,$2,$3,0*
0 Add four circle primitives for the rounded corners*
1,1,$1+$1,$2,$3*
1,1,$1+$1,$4,$5*
1,1,$1+$1,$6,$7*
1,1,$1+$1,$8,$9*
0 Add four rect primitives between the rounded corners*
20,1,$1+$1,$2,$3,$4,$5,0*
20,1,$1+$1,$4,$5,$6,$7,0*
20,1,$1+$1,$6,$7,$8,$9,0*
20,1,$1+$1,$8,$9,$2,$3,0*%
G04 Aperture macros list end*
%ADD10RoundRect,0.250000X-1.050000X-1.050000X1.050000X-1.050000X1.050000X1.050000X-1.050000X1.050000X0*%
%ADD11C,2.600000*%
%ADD12R,1.700000X1.700000*%
%ADD13C,1.700000*%
%ADD14C,2.400000*%
%ADD15RoundRect,0.249999X-0.850001X0.850001X-0.850001X-0.850001X0.850001X-0.850001X0.850001X0.850001X0*%
%ADD16C,2.200000*%
%ADD17RoundRect,0.102000X-1.400000X-0.550000X1.400000X-0.550000X1.400000X0.550000X-1.400000X0.550000X0*%
%ADD18RoundRect,0.102000X-1.300000X-0.550000X1.300000X-0.550000X1.300000X0.550000X-1.300000X0.550000X0*%
%ADD19C,3.200000*%
%ADD20C,1.600000*%
%ADD21RoundRect,0.102000X0.825000X-0.825000X0.825000X0.825000X-0.825000X0.825000X-0.825000X-0.825000X0*%
%ADD22C,1.854000*%
%ADD23RoundRect,0.102000X-0.304800X-1.104900X0.304800X-1.104900X0.304800X1.104900X-0.304800X1.104900X0*%
%ADD24R,1.800000X1.800000*%
%ADD25C,1.800000*%
%ADD26RoundRect,0.102000X0.765000X-0.765000X0.765000X0.765000X-0.765000X0.765000X-0.765000X-0.765000X0*%
%ADD27C,1.734000*%
%ADD28RoundRect,0.249999X0.850001X-0.850001X0.850001X0.850001X-0.850001X0.850001X-0.850001X-0.850001X0*%
%ADD29RoundRect,0.102000X0.555000X-0.555000X0.555000X0.555000X-0.555000X0.555000X-0.555000X-0.555000X0*%
%ADD30C,1.314000*%
G04 APERTURE END LIST*
D10*
%TO.C,J1*%
X13462000Y-91440000D03*
D11*
X18542000Y-91440000D03*
X23622000Y-91440000D03*
%TD*%
D12*
%TO.C,J5*%
X89154000Y-80010000D03*
D13*
X91694000Y-80010000D03*
X94234000Y-80010000D03*
X96774000Y-80010000D03*
%TD*%
D14*
%TO.C,R14*%
X73152000Y-74422000D03*
X73152000Y-61722000D03*
%TD*%
D12*
%TO.C,J10*%
X88900000Y-43180000D03*
D13*
X91440000Y-43180000D03*
X93980000Y-43180000D03*
X96520000Y-43180000D03*
X99060000Y-43180000D03*
X101600000Y-43180000D03*
X104140000Y-43180000D03*
X106680000Y-43180000D03*
X109220000Y-43180000D03*
X111760000Y-43180000D03*
X114300000Y-43180000D03*
X116840000Y-43180000D03*
X119380000Y-43180000D03*
X121920000Y-43180000D03*
X124460000Y-43180000D03*
X127000000Y-43180000D03*
X129540000Y-43180000D03*
X132080000Y-43180000D03*
X134620000Y-43180000D03*
X137160000Y-43180000D03*
X139700000Y-43180000D03*
X142240000Y-43180000D03*
%TD*%
D15*
%TO.C,J7*%
X24892000Y-13970000D03*
D16*
X24892000Y-16510000D03*
X24892000Y-19050000D03*
X24892000Y-21590000D03*
X24892000Y-24130000D03*
X24892000Y-26670000D03*
X24892000Y-29210000D03*
X24892000Y-31750000D03*
%TD*%
D17*
%TO.C,U2*%
X35580000Y-15860000D03*
D18*
X35480000Y-17860000D03*
X35480000Y-19860000D03*
X35480000Y-21860000D03*
X35480000Y-23860000D03*
X35480000Y-25860000D03*
X35480000Y-27860000D03*
X35480000Y-29860000D03*
X50880000Y-29860000D03*
X50880000Y-27860000D03*
X50880000Y-25860000D03*
X50880000Y-23860000D03*
X50880000Y-21860000D03*
X50880000Y-19860000D03*
X50880000Y-17860000D03*
X50880000Y-15860000D03*
%TD*%
D19*
%TO.C,Hole 3*%
X5080000Y-93980000D03*
%TD*%
D20*
%TO.C,C10*%
X56642000Y-48768000D03*
X61642000Y-48768000D03*
%TD*%
%TO.C,C4*%
X69596000Y-48768000D03*
X64596000Y-48768000D03*
%TD*%
%TO.C,C7*%
X50800000Y-38100000D03*
X45800000Y-38100000D03*
%TD*%
D14*
%TO.C,R15*%
X52832000Y-73914000D03*
X52832000Y-61214000D03*
%TD*%
%TO.C,R9*%
X48260000Y-73914000D03*
X48260000Y-61214000D03*
%TD*%
D20*
%TO.C,C8*%
X29250000Y-43688000D03*
X34250000Y-43688000D03*
%TD*%
D14*
%TO.C,R3*%
X31496000Y-54102000D03*
X44196000Y-54102000D03*
%TD*%
%TO.C,R11*%
X43942000Y-79756000D03*
X31242000Y-79756000D03*
%TD*%
D20*
%TO.C,C9*%
X54610000Y-43688000D03*
X59610000Y-43688000D03*
%TD*%
D14*
%TO.C,R13*%
X23876000Y-50800000D03*
X11176000Y-50800000D03*
%TD*%
D19*
%TO.C,Hole 4*%
X154940000Y-93980000D03*
%TD*%
D14*
%TO.C,R17*%
X56642000Y-75184000D03*
X69342000Y-75184000D03*
%TD*%
%TO.C,R4*%
X44196000Y-58420000D03*
X31496000Y-58420000D03*
%TD*%
D12*
%TO.C,J11*%
X88900000Y-7620000D03*
D13*
X91440000Y-7620000D03*
X93980000Y-7620000D03*
X96520000Y-7620000D03*
X99060000Y-7620000D03*
X101600000Y-7620000D03*
X104140000Y-7620000D03*
X106680000Y-7620000D03*
X109220000Y-7620000D03*
X111760000Y-7620000D03*
X114300000Y-7620000D03*
X116840000Y-7620000D03*
X119380000Y-7620000D03*
X121920000Y-7620000D03*
X124460000Y-7620000D03*
X127000000Y-7620000D03*
X129540000Y-7620000D03*
X132080000Y-7620000D03*
X134620000Y-7620000D03*
X137160000Y-7620000D03*
X139700000Y-7620000D03*
X142240000Y-7620000D03*
%TD*%
D21*
%TO.C,PS1*%
X129540000Y-78740000D03*
D22*
X149540000Y-78740000D03*
X144540000Y-58740000D03*
X134540000Y-58740000D03*
%TD*%
D10*
%TO.C,J9*%
X137160000Y-91440000D03*
D11*
X142240000Y-91440000D03*
%TD*%
D23*
%TO.C,U3*%
X35687000Y-70180200D03*
X36957000Y-70180200D03*
X38227000Y-70180200D03*
X39497000Y-70180200D03*
X39497000Y-64947800D03*
X38227000Y-64947800D03*
X36957000Y-64947800D03*
X35687000Y-64947800D03*
%TD*%
D14*
%TO.C,R16*%
X69342000Y-79756000D03*
X56642000Y-79756000D03*
%TD*%
%TO.C,R12*%
X31242000Y-75184000D03*
X43942000Y-75184000D03*
%TD*%
D20*
%TO.C,C6*%
X35640000Y-38100000D03*
X40640000Y-38100000D03*
%TD*%
D14*
%TO.C,R2*%
X13462000Y-68834000D03*
X13462000Y-81534000D03*
%TD*%
D24*
%TO.C,D1*%
X13462000Y-58674000D03*
D25*
X13462000Y-56134000D03*
%TD*%
D14*
%TO.C,R10*%
X27432000Y-73152000D03*
X27432000Y-60452000D03*
%TD*%
D20*
%TO.C,C2*%
X44664000Y-48768000D03*
X39664000Y-48768000D03*
%TD*%
D19*
%TO.C,Hole 1*%
X5080000Y-5080000D03*
%TD*%
D26*
%TO.C,U1*%
X88900000Y-38100000D03*
D27*
X91440000Y-38100000D03*
X93980000Y-38100000D03*
X96520000Y-38100000D03*
X99060000Y-38100000D03*
X101600000Y-38100000D03*
X104140000Y-38100000D03*
X106680000Y-38100000D03*
X109220000Y-38100000D03*
X111760000Y-38100000D03*
X114300000Y-38100000D03*
X116840000Y-38100000D03*
X119380000Y-38100000D03*
X121920000Y-38100000D03*
X124460000Y-38100000D03*
X127000000Y-38100000D03*
X129540000Y-38100000D03*
X132080000Y-38100000D03*
X134620000Y-38100000D03*
X137160000Y-38100000D03*
X139700000Y-38100000D03*
X142240000Y-38100000D03*
X88900000Y-12700000D03*
X91440000Y-12700000D03*
X93980000Y-12700000D03*
X96520000Y-12700000D03*
X99060000Y-12700000D03*
X101600000Y-12700000D03*
X104140000Y-12700000D03*
X106680000Y-12700000D03*
X109220000Y-12700000D03*
X111760000Y-12700000D03*
X114300000Y-12700000D03*
X116840000Y-12700000D03*
X119380000Y-12700000D03*
X121920000Y-12700000D03*
X124460000Y-12700000D03*
X127000000Y-12700000D03*
X129540000Y-12700000D03*
X132080000Y-12700000D03*
X134620000Y-12700000D03*
X137160000Y-12700000D03*
X139700000Y-12700000D03*
X142240000Y-12700000D03*
%TD*%
D10*
%TO.C,J6*%
X111760000Y-91440000D03*
D11*
X116840000Y-91440000D03*
%TD*%
D10*
%TO.C,J2*%
X32512000Y-91440000D03*
D11*
X37592000Y-91440000D03*
X42672000Y-91440000D03*
%TD*%
D14*
%TO.C,R8*%
X69342000Y-58420000D03*
X56642000Y-58420000D03*
%TD*%
D10*
%TO.C,J4*%
X57912000Y-91440000D03*
D11*
X62992000Y-91440000D03*
X68072000Y-91440000D03*
%TD*%
D14*
%TO.C,R7*%
X56642000Y-54102000D03*
X69342000Y-54102000D03*
%TD*%
D20*
%TO.C,C5*%
X31322000Y-48768000D03*
X36322000Y-48768000D03*
%TD*%
D24*
%TO.C,D2*%
X22098000Y-58674000D03*
D25*
X22098000Y-56134000D03*
%TD*%
D20*
%TO.C,C1*%
X13502000Y-65278000D03*
X18502000Y-65278000D03*
%TD*%
D14*
%TO.C,R18*%
X23825200Y-45974000D03*
X11125200Y-45974000D03*
%TD*%
D23*
%TO.C,U4*%
X61087000Y-70180200D03*
X62357000Y-70180200D03*
X63627000Y-70180200D03*
X64897000Y-70180200D03*
X64897000Y-64947800D03*
X63627000Y-64947800D03*
X62357000Y-64947800D03*
X61087000Y-64947800D03*
%TD*%
D28*
%TO.C,J8*%
X61468000Y-31750000D03*
D16*
X61468000Y-29210000D03*
X61468000Y-26670000D03*
X61468000Y-24130000D03*
X61468000Y-21590000D03*
X61468000Y-19050000D03*
X61468000Y-16510000D03*
X61468000Y-13970000D03*
%TD*%
D10*
%TO.C,J14*%
X85344000Y-91440000D03*
D11*
X90424000Y-91440000D03*
X95504000Y-91440000D03*
X100584000Y-91440000D03*
%TD*%
D29*
%TO.C,PS2*%
X136570000Y-74311500D03*
D30*
X132670000Y-74311500D03*
X152970000Y-53551500D03*
X141540000Y-53551500D03*
X131380000Y-53551500D03*
%TD*%
D19*
%TO.C,Hole 2*%
X154940000Y-5080000D03*
%TD*%
D14*
%TO.C,R1*%
X21082000Y-81534000D03*
X21082000Y-68834000D03*
%TD*%
D12*
%TO.C,J12*%
X30480000Y-13970000D03*
D13*
X30480000Y-16510000D03*
X30480000Y-19050000D03*
X30480000Y-21590000D03*
X30480000Y-24130000D03*
X30480000Y-26670000D03*
X30480000Y-29210000D03*
X30480000Y-31750000D03*
%TD*%
D12*
%TO.C,J13*%
X55880000Y-13970000D03*
D13*
X55880000Y-16510000D03*
X55880000Y-19050000D03*
X55880000Y-21590000D03*
X55880000Y-24130000D03*
X55880000Y-26670000D03*
X55880000Y-29210000D03*
X55880000Y-31750000D03*
%TD*%
M02*
